{"title":"Tropic Thunder (2009) - Xvid - Omifast Greek","uid":5052222,"size":1502254578,"categoryP":"video","categoryS":"movies","magnet":"?xt=urn:btih:7ade209b80709a69e5d3680255ed2dc112bc79d3&amp;dn=Tropic+Thunder+%282009%29+-+Xvid+-+Omifast+Greek&amp;tr=udp%3A%2F%2Ftracker.openbittorrent.com%3A80&amp;tr=udp%3A%2F%2Fopen.demonii.com%3A1337&amp;tr=udp%3A%2F%2Ftracker.coppersurfer.tk%3A6969&amp;tr=udp%3A%2F%2Fexodus.desync.com%3A6969","seeders":0,"leechers":0,"uploader":"OmifastGR","files":-1,"time":1250222251,"description":"GREEK SUBTITLES ARE EMBEDDED, YOU CAN NOT TURN THEM OFF.\n\nMovie Sample and Trailer are included\n\n-----------------------------------------------------------------------\n\nTropic Thunder (2008) &lt;a href=&quot;\nhttp://www.imdb.com/title/tt0942385/&quot; rel=&quot;nofollow&quot; target=&quot;_NEW&quot;&gt;\nhttp://www.imdb.com/title/tt0942385/&lt;/a&gt;\n\nA group of self-absorbed actors set out to make the most expensive war film. But after ballooning costs force the studio to cancel the movie, the frustrated director refuses to stop shooting, leading his cast into the jungles of Southeast Asia, where they encounter real bad guys.\n\nStarring:Ben Stiller, Jack Black, Robert Downey Jr., Jay Baruchel, Nick Nolte\n\n-------------------------------------------------------------------------\n\nGeneral\nFormat                           : AVI\nFormat/Info                      : Audio Video Interleave\nFile size                        : 700 MiB\nDuration                         : 48mn 13s\nOverall bit rate                 : 2 030 Kbps\nWriting application              : VirtualDubMod 1.5.4.1 (build 2178/release)\nWriting library                  : VirtualDubMod build 2178/release\n\nVideo\nID                               : 0\nFormat                           : MPEG-4 Visual\nFormat profile                   : AdvancedSimple@L5\nFormat settings, BVOP            : Yes\nFormat settings, QPel            : No\nFormat settings, GMC             : No warppoints\nFormat settings, Matrix          : Custom\nCodec ID                         : XVID\nCodec ID/Hint                    : XviD\nDuration                         : 48mn 13s\nBit rate                         : 1 831 Kbps\nWidth                            : 736 pixels\nHeight                           : 416 pixels\nDisplay aspect ratio             : 16:9\nFrame rate                       : 25.000 fps\nResolution                       : 24 bits\nColorimetry                      : 4:2:0\nScan type                        : Progressive\nBits/(Pixel*Frame)               : 0.239\nStream size                      : 632 MiB (90%)\nWriting library                  : XviD 1.2.1 (UTC 2008-12-04)\n\nAudio\nID                               : 1\nFormat                           : AC-3\nFormat/Info                      : Audio Coding 3\nCodec ID                         : 2000\nDuration                         : 48mn 13s\nBit rate mode                    : Constant\nBit rate                         : 192 Kbps\nChannel(s)                       : 2 channels\nChannel positions                : L R\nSampling rate                    : 48.0 KHz\nStream size                      : 66.2 MiB (9%)\nAlignment                        : Split accross interleaves\nInterleave, duration             : 96 ms (2.40 video frames)\nInterleave, preload duration     : 96 ms\nLanguage                         : English / English / English\n\n\n!","torrent":{"xt":"urn:btih:7ade209b80709a69e5d3680255ed2dc112bc79d3","amp;dn":"Tropic+Thunder+%282009%29+-+Xvid+-+Omifast+Greek","amp;tr":["udp%3A%2F%2Ftracker.openbittorrent.com%3A80","udp%3A%2F%2Fopen.demonii.com%3A1337","udp%3A%2F%2Ftracker.coppersurfer.tk%3A6969","udp%3A%2F%2Fexodus.desync.com%3A6969"],"infoHash":"7ade209b80709a69e5d3680255ed2dc112bc79d3","infoHashBuffer":{"type":"Buffer","data":[122,222,32,155,128,112,154,105,229,211,104,2,85,237,45,193,18,188,121,211]},"announce":[],"urlList":[]}}